<?xml version="1.0" encoding="utf-8"?>
<!-- Generator: Adobe Illustrator 16.0.0, SVG Export Plug-In . SVG Version: 6.00 Build 0)  -->
<!DOCTYPE svg PUBLIC "-//W3C//DTD SVG 1.1//EN" "http://www.w3.org/Graphics/SVG/1.1/DTD/svg11.dtd">
<svg version="1.1" id="Layer_1" xmlns="http://www.w3.org/2000/svg" xmlns:xlink="http://www.w3.org/1999/xlink" x="0px" y="0px"
	 width="100px" height="100px" viewBox="0 0 100 100" enable-background="new 0 0 100 100" xml:space="preserve">
<path fill="#FFFFFF" d="M16.242-65.862c0.118,0.028,0.239,0.04,0.352,0.04c0.727,0,1.383-0.501,1.552-1.243
	c0.984-4.375,3.027-11.435,4.114-12.989c1.945-2.803,5.371-2.753,5.549-2.749l4.85-0.014c0.038-0.001,4.475-0.45,6.424,2.84
	c0.038,0.063,0.08,0.125,0.123,0.179c1.176,1.488,3.378,8.653,4.311,12.743c0.202,0.854,1.055,1.385,1.908,1.193
	c0.853-0.197,1.387-1.051,1.194-1.907c-0.497-2.151-2.886-11.287-4.85-13.914c-2.999-4.936-9.189-4.32-9.283-4.3h-0.764
	c5.535-0.733,9.832-5.428,9.832-11.158c0-6.235-5.07-11.299-11.308-11.299c-6.228,0-11.294,5.064-11.294,11.299
	c0,5.73,4.293,10.425,9.823,11.158h-0.91c-0.205-0.004-5.258-0.145-8.214,4.11c-1.749,2.509-4.077,11.771-4.606,14.109
	C14.85-66.906,15.385-66.055,16.242-65.862z M22.128-97.142c0-4.478,3.641-8.119,8.117-8.119c4.484,0,8.131,3.642,8.131,8.119
	c0,4.48-3.646,8.129-8.131,8.129C25.769-89.013,22.128-92.662,22.128-97.142z M93.407-119.897H6.589
	c-0.88,0-1.589,0.713-1.589,1.592v62.353c0,0.877,0.708,1.59,1.589,1.59h86.818c0.88,0,1.593-0.713,1.593-1.59v-62.353
	C95-119.185,94.287-119.897,93.407-119.897z M91.817-57.543H8.177v-59.174h83.64V-57.543z M53.854-98.06
	c0-0.878,0.712-1.588,1.593-1.588H82.3c0.882,0,1.593,0.71,1.593,1.588c0,0.879-0.711,1.592-1.593,1.592H55.447
	C54.566-96.468,53.854-97.181,53.854-98.06z M53.854-87.139c0-0.879,0.712-1.59,1.593-1.59H82.3c0.882,0,1.593,0.711,1.593,1.59
	c0,0.876-0.711,1.59-1.593,1.59H55.447C54.566-85.549,53.854-86.263,53.854-87.139z M53.854-76.214c0-0.878,0.712-1.589,1.593-1.589
	H82.3c0.882,0,1.593,0.711,1.593,1.589c0,0.879-0.711,1.59-1.593,1.59H55.447C54.566-74.624,53.854-75.335,53.854-76.214z"/>
<g>
	<path fill="#FFFFFF" d="M93.988-201.449l-5.407-9.05c-0.718-1.196-1.733-1.501-3.128-1.501H16.596
		c-1.405,0-2.706,0.316-3.419,1.526l-6.712,11.158c-0.359,0.608-0.549,1.193-0.551,1.899l-0.237,71.016
		c-0.003,1.055,0.413,2.277,1.158,3.024C7.58-122.629,8.591-122,9.647-122H91.14c2.192,0,2.86-2.249,2.86-4.441v-72.964
		C94-200.125,94.359-200.832,93.988-201.449z M16.596-208h68.682h0.175L90-199.406V-198H10.636L16.596-208z M9.647-126l0.23-69H90
		v69H9.647z"/>
	<path fill="#FFFFFF" d="M78.991-186H23.404c-0.548,0-2.404-0.409-2.404,0.14v6.86h-1.898c-0.365,0-1.102,0-1.102,0v13.323
		c0,0.366,0.737,1.677,1.102,1.677H21v8h-1.898c-0.365,0-1.102-1-1.102,0v12.823c0,0.366,0.737,1.177,1.102,1.177H21v6.434
		c0,0.548,1.855,1.566,2.404,1.566h55.587c0.549,0,0.009-1.019,0.009-1.566v-50.294C79-186.409,79.54-186,78.991-186z M19-178h5v12
		h-5V-178z M19-155h5v12h-5V-155z M77-136H23v-6h2c1,0,0-0.811,0-1.177V-156c0-1,0,0,0,0h-2v-8h2c1,0,0-1.311,0-1.677V-179l0,0h-2
		v-5h54V-136z"/>
	<path fill="#FFFFFF" d="M40.814-144.325c1.329-1.135,1.663-2.985,0.952-4.494l1.353-1.154c2.542,2.692,6.131,4.384,10.117,4.384
		c3.835,0,7.312-1.558,9.833-4.073l0.834,0.693c-0.69,1.518-0.33,3.362,1.014,4.479c1.61,1.338,3.999,1.118,5.337-0.492
		c1.339-1.609,1.117-4-0.492-5.338c-1.344-1.117-3.225-1.133-4.59-0.176l-0.812-0.674c1.752-2.329,2.547-5.214,2.547-8.346
		c0-7.587-5.906-13.764-13.906-13.914v-1.323c2-0.349,3.295-1.879,3.295-3.715c0-2.093-1.568-3.79-3.662-3.79
		c-2.093,0-3.989,1.697-3.989,3.79c0,1.661,0.356,3.069,2.356,3.581v1.559c-7,0.846-11.956,6.711-11.956,13.813
		c0,2.98,1.082,5.739,2.683,8.007l-1.316,1.182c-1.378-0.938-3.225-0.896-4.553,0.238c-1.592,1.36-1.763,3.752-0.404,5.344
		C36.813-143.154,39.224-142.966,40.814-144.325z M53.235-146.913c-3.583,0-6.814-1.511-9.111-3.92l4.544-3.882
		c1.19,1.132,2.795,1.831,4.567,1.831c1.582,0,3.034-0.556,4.174-1.48l4.633,3.849C59.768-148.291,56.661-146.913,53.235-146.913z
		 M65.584-159.517c0,2.811-0.809,5.401-2.37,7.5l-4.527-3.814c0.705-1.055,0.894-2.321,0.894-3.686c0-3.57-2.58-6.473-6.58-6.619
		v-5.972C60-171.958,65.584-166.374,65.584-159.517z M40.368-159.517c0-6.37,4.632-11.638,10.632-12.476v6.072
		c-3,0.754-4.661,3.331-4.661,6.403c0,1.175,0.44,2.276,0.977,3.233l-4.647,3.914C41.262-154.402,40.368-156.863,40.368-159.517z"/>
</g>
<g>
	<path fill="#FFFFFF" d="M64,51h12v3h1v-3h12v3h1V37.472C90,36.501,89.859,36,88.884,36H60.449c0.195,0,0.355,1,0.487,1H63v6h-1.79
		c-0.078,0-0.181,1-0.317,1H63v6h-5.146c-0.498,1-1.044,1-1.624,1H63v6H52v-3.599c-1,0.161-1,0.287-2,0.385V57h-5v-3h-1v22.1
		c0,0.595,0,1.122,0,1.444V78h0.847c0.122,0,0.244,0,0.376,0H66v-2h-2v-5h2v-1h-2v-5h2v-1h-2v-6h2v-1h-2V51z M77,37h11.884
		C89.024,37,89,37.335,89,37.472V43H77V37z M77,44h12v6H77V44z M64,37h12v6H64V37z M64,44h12v6H64V44z M50,76h-4.909
		C45.018,76,45,76.188,45,76.1V71h5V76z M50,70h-5v-5h5V70z M50,64h-5v-6h5V64z M63,76H52v-5h11V76z M63,70H52v-5h11V70z M63,64H52
		v-6h11V64z"/>
	<path fill="#FFFFFF" d="M73.115,64.53c0.199,0,0.391-0.038,0.57-0.106l2.644,4.136c-0.365,0.347-0.6,0.839-0.6,1.381
		c0,1.048,0.854,1.901,1.902,1.901c1.054,0,1.901-0.854,1.901-1.901c0-0.293-0.068-0.566-0.186-0.811l3.469-2.536
		c0.268,0.229,0.614,0.376,0.999,0.376c0.42,0,0.806-0.171,1.083-0.449l3.546,2.22c-0.181,0.316-0.283,0.683-0.283,1.072
		c0,1.195,0.966,2.166,2.161,2.166c1.194,0,2.165-0.971,2.165-2.166c0-1.194-0.971-2.16-2.165-2.16c-0.541,0-1.039,0.2-1.42,0.536
		l-3.628-2.272c0.048-0.156,0.083-0.321,0.083-0.493c0-0.854-0.693-1.546-1.542-1.546c-0.854,0-1.546,0.692-1.546,1.546
		c0,0.215,0.044,0.415,0.122,0.601l-3.463,2.531c-0.341-0.317-0.795-0.517-1.297-0.517c-0.249,0-0.483,0.054-0.703,0.137
		l-2.639-4.132c0.303-0.297,0.488-0.717,0.488-1.175c0-0.922-0.741-1.663-1.663-1.663c-0.917,0-1.663,0.741-1.663,1.663
		C71.452,63.785,72.198,64.53,73.115,64.53z"/>
	<path fill="#FFFFFF" d="M69,56v24h26V56H69z M94,69.812V79h-0.146H70V62.868V57h24V69.812z"/>
	<path fill="#FFFFFF" d="M25,48h-8.109c-4.02,0-7.287-3.353-7.287-7.371s3.268-7.329,7.287-7.329c0.204,0,0.404-0.001,0.6,0.012
		c0.063,0.005,0.127-0.005,0.19-0.005c0.673,0,1.297-0.288,1.736-0.761c0.088-0.093,0.171-0.197,0.243-0.31
		c0.068-0.107,0.132-0.226,0.186-0.348s0.098-0.25,0.132-0.381c0.98-3.901,4.473-6.628,8.496-6.628c2.297,0,4.468,0.887,6.121,2.497
		c0.166,0.161,0.356,0.272,0.556,0.38C35.487,27.932,35.862,28,36.248,28h0.005c0.161,0,0.316,0.005,0.478-0.023
		c0.493-0.103,0.995-0.144,1.493-0.144c2.813,0,5.326,1.585,6.555,4.131c0.127,0.254,0.293,0.486,0.487,0.677
		c0.122,0.112,0.254,0.216,0.391,0.303c0.137,0.089,0.288,0.162,0.439,0.221c0.258,0.093,0.526,0.142,0.81,0.142
		c0.083,0,0.16,0,0.243-0.01c0.244-0.024,0.493-0.038,0.731-0.038c2.161,0,4.107,0.946,5.443,2.453
		c0.405,0.454,0.756,0.961,1.034,1.507c0.512,0.995,0.805,2.127,0.805,3.327c0,0.697-0.098,1.37-0.283,2.009
		c-0.15,0.532-0.361,1.039-0.624,1.512c-0.561,1.015-1.36,1.883-2.316,2.521c-0.469,0.317-0.976,0.665-1.513,0.865
		C49.631,47.755,48.772,48,47.88,48h-2.911h-1.512H39v5h4.457h1.512h2.907c0.877,0,1.73-0.31,2.55-0.489
		c0.518-0.112,1.024-0.366,1.513-0.542c0.575-0.205,1.126-0.509,1.653-0.797c0.785-0.424,1.512-0.958,2.175-1.538
		c1.673-1.459,2.941-3.384,3.604-5.554c0.151-0.488,0.273-1.002,0.356-1.519c0.111-0.653,0.17-1.331,0.17-2.013
		c0-1.151-0.161-2.269-0.468-3.329c-0.151-0.517-0.332-1.02-0.547-1.507c-1.735-3.936-5.521-6.775-10.003-7.146
		c-0.39-0.034-0.746-0.234-0.98-0.547c-2.243-3.038-5.843-4.911-9.676-4.911c-0.244,0-0.488,0.005-0.731,0.024
		c-0.176,0.01-0.352-0.015-0.513-0.068c-0.142-0.044-0.269-0.117-0.391-0.205c-2.33-1.766-5.154-2.717-8.115-2.717
		c-5.302,0-10.008,3.073-12.203,7.726c-0.194,0.42-0.585,0.708-1.044,0.771C9.385,29.449,4.867,34.699,4.867,40.761
		C4.867,47.39,10.262,53,16.891,53H25V48z"/>
	<path fill="#FFFFFF" d="M39.33,56H37v-1.97V41.198C37,40.086,36.224,39,35.116,39h-5.467C28.547,39,27,40.086,27,41.198v11.369V56
		h-1.565c-0.507,0-0.965,0.249-1.18,0.707c-0.215,0.459-0.137,0.98,0.19,1.365l5.916,6.948c0.507,0.591,1.243,0.926,2.023,0.926
		c0.776,0,1.518-0.344,2.024-0.934l5.911-6.963c0.332-0.385,0.405-0.883,0.19-1.342C40.301,56.25,39.838,56,39.33,56z"/>
</g>
</svg>
