<?xml version="1.0" encoding="utf-8"?>
<!-- Generator: Adobe Illustrator 16.0.0, SVG Export Plug-In . SVG Version: 6.00 Build 0)  -->
<!DOCTYPE svg PUBLIC "-//W3C//DTD SVG 1.1//EN" "http://www.w3.org/Graphics/SVG/1.1/DTD/svg11.dtd">
<svg version="1.1" id="Layer_1" xmlns="http://www.w3.org/2000/svg" xmlns:xlink="http://www.w3.org/1999/xlink" x="0px" y="0px"
	 width="100px" height="100px" viewBox="0 0 100 100" enable-background="new 0 0 100 100" xml:space="preserve">
<g>
	<circle cx="50" cy="11.594" r="10.035"/>
	<path d="M47.527,22.088c-0.008,0.002-0.017,0.002-0.024,0.004c-0.839,0.2-1.663,0.512-2.449,0.904
		c0.312,4.077,2.647,7.955,4.946,7.955c2.285,0,4.606-3.835,4.938-7.888c-0.799-0.406-1.634-0.739-2.487-0.948l-2.5,2.517
		L47.527,22.088z"/>
	<path d="M69.011,52.577c1.753-17.525-5.013-24.239-12.585-28.884c-0.025-0.016-0.053-0.024-0.079-0.039
		c-0.475,4.13-2.745,8.211-5.746,8.7c-0.426,2.082,0.313,2.921,1.177,3.863c1.576,1.719,2.477,3.35-0.261,7.855
		c0.193,0.289,0.307,0.637,0.307,1.011c0,1.008-0.816,1.823-1.823,1.823s-1.823-0.815-1.823-1.823c0-1.007,0.816-1.823,1.823-1.823
		c0.1,0,0.195,0.014,0.291,0.029c2.386-3.911,1.509-4.891,0.411-6.086c-0.926-1.009-2.052-2.248-1.582-4.912
		c-2.834-0.683-4.97-4.564-5.457-8.524c-0.146,0.063-0.292,0.123-0.431,0.208c-7.402,4.54-14.008,11.19-12.23,28.955
		c0.201,2.01,1.896,3.509,3.872,3.509c0.13,0,0.261-0.007,0.393-0.02c2.142-0.215,3.703-2.124,3.489-4.265
		c-0.59-5.893-0.165-10.017,0.925-13.072c0,0,0,13.317,0,13.905c0,3.039,0.085,2.948,0.713,3.692l0.002,37.155
		c0,2.543,2.161,4.604,4.704,4.604s4.505-2.062,4.505-4.604l-0.002-32.017c0.183,0.009,0.364,0.023,0.548,0.023
		c0.036,0,0.072-0.005,0.108-0.005l-0.002,31.998c0,2.543,2.161,4.604,4.704,4.604s4.505-2.062,4.505-4.604l0.002-37.178
		c0.579-0.722,0.755-0.892,0.755-3.67c0-0.328,0-14.145,0-14.145c1.151,3.048,1.617,7.137,1.034,12.958
		c-0.183,1.831,0.938,3.483,2.604,4.06v3.862h-2.228v19.75h6.75v-19.75h-2.228v-3.791C67.666,55.519,68.846,54.228,69.011,52.577z"
		/>
</g>
</svg>
