<?xml version="1.0" encoding="utf-8"?>
<!-- Generator: Adobe Illustrator 16.0.0, SVG Export Plug-In . SVG Version: 6.00 Build 0)  -->
<!DOCTYPE svg PUBLIC "-//W3C//DTD SVG 1.1//EN" "http://www.w3.org/Graphics/SVG/1.1/DTD/svg11.dtd">
<svg version="1.1" id="Capa_1" xmlns="http://www.w3.org/2000/svg" xmlns:xlink="http://www.w3.org/1999/xlink" x="0px" y="0px"
	 width="96px" height="96px" viewBox="0 0 96 96" enable-background="new 0 0 96 96" xml:space="preserve">
<path fill="#FFFFFF" d="M48,5.5C24.528,5.5,5.5,24.528,5.5,48c0,23.473,19.028,42.5,42.5,42.5c23.473,0,42.5-19.027,42.5-42.5
	C90.5,24.528,71.473,5.5,48,5.5z M58.066,34.869h-6.39c-0.757,0-1.598,0.993-1.598,2.323v4.614h7.986v6.577h-7.986v19.75h-7.544
	v-19.75h-6.838v-6.577h6.838v-3.871c0-5.551,3.853-10.065,9.14-10.065h6.391L58.066,34.869L58.066,34.869z"/>
</svg>
