<?xml version="1.0" encoding="utf-8"?>
<!-- Generator: Adobe Illustrator 16.0.0, SVG Export Plug-In . SVG Version: 6.00 Build 0)  -->
<!DOCTYPE svg PUBLIC "-//W3C//DTD SVG 1.1//EN" "http://www.w3.org/Graphics/SVG/1.1/DTD/svg11.dtd">
<svg version="1.1" id="Layer_1" xmlns="http://www.w3.org/2000/svg" xmlns:xlink="http://www.w3.org/1999/xlink" x="0px" y="0px"
	 width="100px" height="100px" viewBox="0 0 100 100" enable-background="new 0 0 100 100" xml:space="preserve">
<path fill="#FFFFFF" d="M8.943,18.572c0.722-0.268,1.495-0.436,2.312-0.436h78.603c0.816,0,1.588,0.167,2.312,0.436L56.95,51.75
	c-3.585,3.379-9.203,3.379-12.79,0L8.943,18.572z M95.537,77.529c0.609-1.008,0.98-2.176,0.98-3.438V24.797
	c0-0.895-0.183-1.746-0.503-2.527L63.058,53.316L95.537,77.529z M60.076,56.079c-2.735,2.343-6.121,3.532-9.521,3.532
	c-3.398,0-6.787-1.188-9.522-3.532L8.647,80.221c0.802,0.341,1.681,0.531,2.607,0.531h78.603c0.926,0,1.805-0.19,2.606-0.531
	L60.076,56.079z M5.096,22.271c-0.321,0.781-0.503,1.632-0.503,2.527v49.293c0,1.263,0.372,2.431,0.982,3.438l32.479-24.213
	L5.096,22.271z"/>
</svg>
