<?xml version="1.0" encoding="utf-8"?>
<!-- Generator: Adobe Illustrator 16.0.0, SVG Export Plug-In . SVG Version: 6.00 Build 0)  -->
<!DOCTYPE svg PUBLIC "-//W3C//DTD SVG 1.1//EN" "http://www.w3.org/Graphics/SVG/1.1/DTD/svg11.dtd">
<svg version="1.1" id="Layer_1" xmlns="http://www.w3.org/2000/svg" xmlns:xlink="http://www.w3.org/1999/xlink" x="0px" y="0px"
	 width="100px" height="100px" viewBox="0 0 100 100" enable-background="new 0 0 100 100" xml:space="preserve">
<path fill="#FFFFFF" d="M16.242-65.862c0.118,0.028,0.239,0.04,0.352,0.04c0.727,0,1.383-0.501,1.552-1.243
	c0.984-4.375,3.027-11.435,4.114-12.989c1.945-2.803,5.371-2.753,5.549-2.749l4.85-0.014c0.038-0.001,4.475-0.45,6.424,2.84
	c0.038,0.063,0.08,0.125,0.123,0.179c1.176,1.488,3.378,8.653,4.311,12.743c0.202,0.854,1.055,1.385,1.908,1.193
	c0.853-0.197,1.387-1.051,1.194-1.907c-0.497-2.151-2.886-11.287-4.85-13.914c-2.999-4.936-9.189-4.32-9.283-4.3h-0.764
	c5.535-0.733,9.832-5.428,9.832-11.158c0-6.235-5.07-11.299-11.308-11.299c-6.228,0-11.294,5.064-11.294,11.299
	c0,5.73,4.293,10.425,9.823,11.158h-0.91c-0.205-0.004-5.258-0.145-8.214,4.11c-1.749,2.509-4.077,11.771-4.606,14.109
	C14.85-66.906,15.385-66.055,16.242-65.862z M22.128-97.142c0-4.478,3.641-8.119,8.117-8.119c4.484,0,8.131,3.642,8.131,8.119
	c0,4.48-3.646,8.129-8.131,8.129C25.769-89.013,22.128-92.662,22.128-97.142z M93.407-119.897H6.589
	c-0.88,0-1.589,0.713-1.589,1.592v62.353c0,0.877,0.708,1.59,1.589,1.59h86.818c0.88,0,1.593-0.713,1.593-1.59v-62.353
	C95-119.185,94.287-119.897,93.407-119.897z M91.817-57.543H8.177v-59.174h83.64V-57.543z M53.854-98.06
	c0-0.878,0.712-1.588,1.593-1.588H82.3c0.882,0,1.593,0.71,1.593,1.588c0,0.879-0.711,1.592-1.593,1.592H55.447
	C54.566-96.468,53.854-97.181,53.854-98.06z M53.854-87.139c0-0.879,0.712-1.59,1.593-1.59H82.3c0.882,0,1.593,0.711,1.593,1.59
	c0,0.876-0.711,1.59-1.593,1.59H55.447C54.566-85.549,53.854-86.263,53.854-87.139z M53.854-76.214c0-0.878,0.712-1.589,1.593-1.589
	H82.3c0.882,0,1.593,0.711,1.593,1.589c0,0.879-0.711,1.59-1.593,1.59H55.447C54.566-74.624,53.854-75.335,53.854-76.214z"/>
<g>
	<path fill="#FFFFFF" d="M93.988,15.551l-5.407-9.05C87.863,5.306,86.848,5,85.453,5H16.596c-1.405,0-2.706,0.316-3.419,1.526
		L6.464,17.684c-0.359,0.608-0.549,1.193-0.551,1.899L5.676,90.599c-0.003,1.055,0.413,2.277,1.158,3.024
		C7.58,94.371,8.591,95,9.647,95H91.14c2.192,0,2.86-2.249,2.86-4.441V17.594C94,16.875,94.359,16.168,93.988,15.551z M16.596,9
		h68.682h0.175L90,17.594V19H10.636L16.596,9z M9.647,91l0.23-69H90v69H9.647z"/>
	<path fill="#FFFFFF" d="M78.991,31H23.404C22.855,31,21,30.591,21,31.14V38h-1.898C18.737,38,18,38,18,38v13.323
		C18,51.689,18.737,53,19.102,53H21v8h-1.898C18.737,61,18,60,18,61v12.823C18,74.189,18.737,75,19.102,75H21v6.434
		C21,81.981,22.855,83,23.404,83h55.587C79.54,83,79,81.981,79,81.434V31.14C79,30.591,79.54,31,78.991,31z M19,39h5v12h-5V39z
		 M19,62h5v12h-5V62z M77,81H23v-6h2c1,0,0-0.811,0-1.177V61c0-1,0,0,0,0h-2v-8h2c1,0,0-1.311,0-1.677V38l0,0h-2v-5h54V81z"/>
	<path fill="#FFFFFF" d="M40.814,72.675c1.329-1.135,1.663-2.985,0.952-4.494l1.353-1.154c2.542,2.692,6.131,4.384,10.117,4.384
		c3.835,0,7.312-1.558,9.833-4.073l0.834,0.693c-0.69,1.518-0.33,3.362,1.014,4.479c1.61,1.338,3.999,1.118,5.337-0.492
		c1.339-1.609,1.117-4-0.492-5.338c-1.344-1.117-3.225-1.133-4.59-0.176l-0.812-0.674c1.752-2.329,2.547-5.214,2.547-8.346
		C66.906,49.896,61,43.719,53,43.569v-1.323c2-0.349,3.295-1.879,3.295-3.715c0-2.093-1.568-3.79-3.662-3.79
		c-2.093,0-3.989,1.697-3.989,3.79c0,1.661,0.356,3.069,2.356,3.581v1.559c-7,0.846-11.956,6.711-11.956,13.813
		c0,2.98,1.082,5.739,2.683,8.007l-1.316,1.182c-1.378-0.938-3.225-0.896-4.553,0.238c-1.592,1.36-1.763,3.752-0.404,5.344
		C36.813,73.846,39.224,74.034,40.814,72.675z M53.235,70.087c-3.583,0-6.814-1.511-9.111-3.92l4.544-3.882
		c1.19,1.132,2.795,1.831,4.567,1.831c1.582,0,3.034-0.556,4.174-1.48l4.633,3.849C59.768,68.709,56.661,70.087,53.235,70.087z
		 M65.584,57.483c0,2.811-0.809,5.401-2.37,7.5l-4.527-3.814c0.705-1.055,0.894-2.321,0.894-3.686c0-3.57-2.58-6.473-6.58-6.619
		v-5.972C60,45.042,65.584,50.626,65.584,57.483z M40.368,57.483c0-6.37,4.632-11.638,10.632-12.476v6.072
		c-3,0.754-4.661,3.331-4.661,6.403c0,1.175,0.44,2.276,0.977,3.233l-4.647,3.914C41.262,62.598,40.368,60.137,40.368,57.483z"/>
</g>
<g>
	<g>
		<g id="XMLID_2_">
			<path fill="none" d="M420.59-101.12c0-2.53-0.79-4.89-2.149-6.82h3.5c1.05,2.04,1.649,4.36,1.649,6.82
				c0,1.43-0.2,2.811-0.58,4.12h-3.16C420.33-98.29,420.59-99.67,420.59-101.12z"/>
			<path fill="#FFFFFF" d="M496.35-107.42v34.46h-3.1v-6.48h-23.84v6.48h-3.101v-6.48h-23.25v11.62h4.271v3.101h-4.271v10.739h4.271
				v3.101h-4.271v10.18h4.271v3.09h-4.271v9.82h4.271v3.18h-44.12c-0.27,0-0.52-0.029-0.77-0.08h-1.301v-0.569
				c-0.93-0.66-1.55-1.74-1.55-2.96v-45.25h3.101v5.649h11.189v-6.149c1.061-0.2,2.09-0.46,3.101-0.79v6.939h22.979v-11.62h-14.18
				c1.189-0.93,2.31-1.97,3.33-3.1h10.85V-93.9h-4.62c0.28-1.01,0.49-2.04,0.65-3.1h3.97v-10.94h-4.53c-0.27-1.05-0.6-2.09-1-3.09
				h58.301C494.73-111.03,496.35-109.41,496.35-107.42z M493.25-82.54V-93.9h-23.84v11.36H493.25z M493.25-97v-10.42
				c0-0.28-0.23-0.51-0.52-0.51h-23.32V-97H493.25z M466.31-82.54V-93.9h-23.25v11.36H466.31z M466.31-97v-10.93h-23.25V-97H466.31z
				 M439.96-27.79v-9.82H416.98v9.82H439.96z M439.96-40.7v-10.18H416.98v10.18H439.96z M439.96-53.98V-64.72H416.98v10.739H439.96z
				 M413.88-27.79v-9.82H402.69v9.391c0,0.18,0.1,0.34,0.25,0.43H413.88z M413.88-40.7v-10.18H402.69v10.18H413.88z M413.88-53.98
				V-64.72H402.69v10.739H413.88z"/>
			<path fill="#FFFFFF" d="M485.33-49.1l7.439,4.659c0.78-0.689,1.801-1.1,2.91-1.1c2.45,0,4.44,1.98,4.44,4.43
				c0,2.45-1.99,4.44-4.44,4.44c-2.449,0-4.43-1.99-4.43-4.44c0-0.8,0.21-1.55,0.58-2.199l-7.271-4.551
				c-0.569,0.57-1.359,0.92-2.22,0.92c-0.79,0-1.5-0.3-2.05-0.77l-7.11,5.2c0.24,0.5,0.38,1.06,0.38,1.66
				c0,2.149-1.739,3.899-3.899,3.899c-2.15,0-3.9-1.75-3.9-3.899c0-1.11,0.48-2.12,1.23-2.83l-5.42-8.48
				c-0.37,0.141-0.761,0.22-1.17,0.22c-1.881,0-3.41-1.529-3.41-3.409c0-1.891,1.529-3.41,3.41-3.41c1.89,0,3.409,1.52,3.409,3.41
				c0,0.939-0.38,1.8-1,2.409l5.41,8.471c0.45-0.17,0.931-0.28,1.44-0.28c1.03,0,1.96,0.41,2.66,1.06l7.1-5.189
				c-0.16-0.38-0.25-0.79-0.25-1.23c0-1.75,1.42-3.17,3.17-3.17c1.74,0,3.16,1.42,3.16,3.17C485.5-49.76,485.43-49.42,485.33-49.1z"
				/>
			<path fill="#FFFFFF" d="M451.99-69.47h53.13v48.5h-53.13V-69.47z M502.92-23.16h0.01v-17.95v-26.17h-48.75v11.931v32.189H502.92z
				"/>
			<path fill="#FFFFFF" d="M432.34-107.94c0.63,2.171,0.96,4.46,0.96,6.82c0,1.4-0.12,2.78-0.35,4.12h-9.94
				c0.38-1.31,0.58-2.69,0.58-4.12c0-2.46-0.6-4.78-1.649-6.82H432.34z"/>
			<path fill="#FFFFFF" d="M423.01-97h9.94c-0.17,1.06-0.42,2.1-0.73,3.1H421.73C422.27-94.87,422.7-95.91,423.01-97z"/>
			<path fill="#FFFFFF" d="M432.34-107.94H421.94c-0.57-1.119-1.29-2.159-2.12-3.09h11.399C431.66-110.03,432.03-109,432.34-107.94z
				"/>
			<path fill="#FFFFFF" d="M421.73-93.9h10.489c-1.359,4.45-3.96,8.37-7.39,11.36h-7.85v-6.19
				C418.94-90.04,420.58-91.82,421.73-93.9z"/>
			<path fill="#FFFFFF" d="M345.12-116.06c-8.24,0-14.94,6.699-14.94,14.939s6.7,14.94,14.94,14.94h17.49v9.71h-17.49
				c-13.59,0-24.65-11.061-24.65-24.65c0-12.43,9.261-22.75,21.24-24.41c0.94-0.13,1.74-0.72,2.14-1.58
				c4.5-9.54,14.15-15.84,25.021-15.84c6.07,0,11.86,1.95,16.64,5.57c0.25,0.18,0.51,0.33,0.8,0.42c0.33,0.11,0.69,0.16,1.051,0.14
				c0.5-0.04,1-0.05,1.5-0.05c7.859,0,15.239,3.84,19.84,10.07c0.479,0.64,1.21,1.05,2.01,1.12c9.19,0.76,16.95,6.58,20.51,14.649
				H419.82c-2.74-3.09-6.73-5.029-11.16-5.029c-0.49,0-1,0.029-1.5,0.079c-0.17,0.021-0.33,0.021-0.5,0.021
				c-0.58,0-1.13-0.1-1.66-0.29c-0.31-0.12-0.62-0.27-0.9-0.45c-0.279-0.18-0.55-0.39-0.8-0.62c-0.399-0.39-0.74-0.859-1-1.38
				c-2.52-5.22-7.67-8.46-13.439-8.46c-1.021,0-2.051,0.11-3.061,0.32c-0.33,0.06-0.649,0.1-0.979,0.1h-0.011
				c-0.79,0-1.56-0.189-2.25-0.55c-0.409-0.22-0.8-0.5-1.14-0.83c-3.39-3.3-7.84-5.12-12.55-5.12c-8.25,0-15.41,5.59-17.42,13.59
				c-0.07,0.271-0.16,0.53-0.271,0.78c-0.109,0.25-0.239,0.49-0.38,0.71c-0.149,0.23-0.319,0.44-0.5,0.63
				c-0.899,0.971-2.18,1.55-3.56,1.55c-0.13,0-0.26,0-0.391-0.01C345.95-116.02,345.54-116.06,345.12-116.06z"/>
			<path fill="#FFFFFF" d="M416.98-82.54h7.85c-1.36,1.19-2.85,2.23-4.46,3.1h-3.39v1.521c-1,0.36-2.04,0.66-3.101,0.89v-2.41
				H402.69v2.971h-3.101v-9.71h3.101v3.64h11.189v-4.59c1.101-0.41,2.14-0.95,3.101-1.601V-82.54z"/>
			<path fill="#FFFFFF" d="M416.98-79.44h3.39c-1.08,0.591-2.21,1.101-3.39,1.521V-79.44z"/>
			<path fill="#FFFFFF" d="M413.88-79.44v2.41c-1.68,0.37-3.43,0.561-5.229,0.561h-5.96v-2.971H413.88z"/>
			<path fill="#FFFFFF" d="M413.88-87.13v4.59H402.69v-3.64h5.97C410.49-86.18,412.25-86.51,413.88-87.13z"/>
			<rect x="391.17" y="-86.18" fill="#FFFFFF" width="8.42" height="9.71"/>
			<path fill="#FFFFFF" d="M382.49-103.9c2.27,0,4.109,1.841,4.109,4.12v26.311v3.84h4.53c1.04,0,1.99,0.61,2.42,1.55
				c0.44,0.94,0.29,2.061-0.39,2.85L381.04-50.96c-1.04,1.21-2.56,1.91-4.15,1.91c-1.6,0-3.109-0.7-4.149-1.91L360.61-65.23
				c-0.67-0.789-0.83-1.909-0.391-2.85c0.44-0.939,1.38-1.55,2.42-1.55h4.54v-6.84V-99.78c0-2.279,1.84-4.12,4.101-4.12H382.49z"/>
		</g>
	</g>
</g>
</svg>
