<?xml version="1.0" encoding="utf-8"?>
<!-- Generator: Adobe Illustrator 16.0.0, SVG Export Plug-In . SVG Version: 6.00 Build 0)  -->
<!DOCTYPE svg PUBLIC "-//W3C//DTD SVG 1.1//EN" "http://www.w3.org/Graphics/SVG/1.1/DTD/svg11.dtd">
<svg version="1.1" id="Capa_1" xmlns="http://www.w3.org/2000/svg" xmlns:xlink="http://www.w3.org/1999/xlink" x="0px" y="0px"
	 width="16px" height="16px" viewBox="0 0 16 16" enable-background="new 0 0 16 16" xml:space="preserve">
<path fill="#FFFFFF" d="M8,0.292C3.743,0.292,0.292,3.743,0.292,8S3.743,15.709,8,15.709S15.709,12.257,15.709,8
	C15.709,3.742,12.257,0.292,8,0.292z M11.835,6.27l0.006,0.246c0,2.508-1.909,5.399-5.4,5.399c-1.071,0-2.069-0.313-2.909-0.853
	c0.149,0.018,0.3,0.027,0.453,0.027c0.889,0,1.708-0.304,2.356-0.812c-0.83-0.016-1.531-0.564-1.772-1.318
	C4.686,8.98,4.803,8.992,4.926,8.992c0.174,0,0.341-0.023,0.5-0.066C4.559,8.751,3.904,7.984,3.904,7.065V7.041
	c0.256,0.143,0.548,0.228,0.86,0.238C4.254,6.939,3.919,6.358,3.919,5.7c0-0.348,0.093-0.673,0.256-0.954
	C5.111,5.895,6.51,6.65,8.087,6.729C8.055,6.59,8.039,6.444,8.039,6.296c0-1.047,0.85-1.897,1.898-1.897
	c0.546,0,1.039,0.23,1.386,0.599c0.433-0.085,0.839-0.244,1.206-0.46c-0.143,0.443-0.442,0.815-0.835,1.05
	c0.383-0.045,0.75-0.149,1.09-0.299C12.529,5.669,12.206,6.004,11.835,6.27z"/>
</svg>
