<?xml version="1.0" encoding="utf-8"?>
<!-- Generator: Adobe Illustrator 16.0.0, SVG Export Plug-In . SVG Version: 6.00 Build 0)  -->
<!DOCTYPE svg PUBLIC "-//W3C//DTD SVG 1.1//EN" "http://www.w3.org/Graphics/SVG/1.1/DTD/svg11.dtd">
<svg version="1.1" id="Layer_1" xmlns="http://www.w3.org/2000/svg" xmlns:xlink="http://www.w3.org/1999/xlink" x="0px" y="0px"
	 width="512px" height="512px" viewBox="0 0 512 512" enable-background="new 0 0 512 512" xml:space="preserve">
<path fill="#FFFFFF" d="M317.391,15.66C297.76,10.66,277.189,8,256,8c-21.18,0-41.74,2.66-61.37,7.66C87.34,42.96,8,140.21,8,256
	c0,59.56,21,114.22,56,156.98C109.48,468.54,178.6,504,256,504c77.4,0,146.52-35.46,192-91.02c35-42.761,56-97.421,56-156.98
	C504,140.22,424.67,42.97,317.391,15.66z M164.92,40.38C193.76,28.19,224.4,22,256,22c31.6,0,62.24,6.19,91.08,18.38
	c1.25,0.53,2.49,1.07,3.72,1.62c20.63,22.73,33.2,52.9,33.2,86c0,64.06-47.189,116.66-108.62,126.05
	C319.12,245.09,352,206.41,352,160c0-4.78-0.689-9.34-1.38-13.94c-22.74,9.11-57.81,4.41-90.87-14.67
	c-25.22-14.58-43.53-34.33-52.5-53.66C179.09,94.47,160,124.86,160,160c0,46.41,32.94,85.09,76.66,94.05
	C175.25,244.66,128,192.06,128,128c0-33.11,12.59-63.28,33.21-86.01C162.44,41.44,163.68,40.91,164.92,40.38z M421.46,421.46
	c-21.489,21.5-46.521,38.37-74.38,50.16C318.24,483.82,287.6,490,256,490c-31.6,0-62.24-6.18-91.08-18.38
	c-27.86-11.79-52.89-28.66-74.38-50.16c-9.83-9.82-18.7-20.4-26.54-31.64V384c0-53.03,43-96,96-96h16c0,44.19,35.81,80,80,80
	c44.189,0,80-35.81,80-80h16c53.061,0,96,42.97,96,96v5.82C440.16,401.06,431.29,411.64,421.46,421.46z"/>
</svg>
